<svg width="160" height="160" viewBox="0 0 160 160" fill="none" xmlns="http://www.w3.org/2000/svg">
  <rect x="20" y="20" width="120" height="120" stroke="#00ff88" stroke-width="2"/>
  <rect x="40" y="40" width="80" height="80" stroke="#00ff88" stroke-width="1"/>
  <rect x="55" y="55" width="50" height="50" stroke="#00ff88" stroke-width="1"/>
  <rect x="65" y="65" width="30" height="30" stroke="#00ff88" stroke-width="1"/>

  <!-- Top left -->
  <line x1="20" y1="20" x2="65" y2="65" stroke="#00ff88" stroke-width="1"/>
  <!-- Top middle left -->
  <line x1="60" y1="20" x2="73" y2="65" stroke="#00ff88" stroke-width="1"/>
  <!-- Top middle right -->
  <line x1="100" y1="20" x2="87" y2="65" stroke="#00ff88" stroke-width="1"/>
  <!-- Top right -->
  <line x1="140" y1="20" x2="95" y2="65" stroke="#00ff88" stroke-width="1"/>
  <!-- Right middle top -->
  <line x1="140" y1="60" x2="95" y2="73" stroke="#00ff88" stroke-width="1"/>
  <!-- Right middle bottom -->
  <line x1="140" y1="100" x2="95" y2="87" stroke="#00ff88" stroke-width="1"/>
  <!-- Bottom right -->
  <line x1="140" y1="140" x2="95" y2="95" stroke="#00ff88" stroke-width="1"/>
  <!-- Bottom middle right -->
  <line x1="100" y1="140" x2="87" y2="95" stroke="#00ff88" stroke-width="1"/>
  <!-- Bottom middle left -->
  <line x1="60" y1="140" x2="73" y2="95" stroke="#00ff88" stroke-width="1"/>
  <!-- Bottom left -->
  <line x1="20" y1="140" x2="65" y2="95" stroke="#00ff88" stroke-width="1"/>
  <!-- Left middle bottom -->
  <line x1="20" y1="100" x2="65" y2="87" stroke="#00ff88" stroke-width="1"/>
  <!-- Left middle top -->
  <line x1="20" y1="60" x2="65" y2="73" stroke="#00ff88" stroke-width="1"/>
</svg>
